# xmcd CD database file
# Copyright (C) 1997 Ti Kan
#
# Track frame offsets:
#  150
#  13470
#  30860
#  49083
#  61430
#  72013
#  87808
#  100248
#  115543
#  128130
#
# Disc length: 1870 seconds
#
# Revision: 2
# Processed by: cddbd v1.4PL0 Copyright (c) Steve Scherf et al.
# Submitted via: Gronk 1.4
#
DISCID=79074c0a
DTITLE=Angela Peterson - Texas Cutie
DYEAR=1900
DGENRE=country
TTITLE0=Texas Cuties
TTITLE1=I Cheated on Me
TTITLE2=Something About Fallin'
TTITLE3=Brighter Everyday
TTITLE4=Love is a Flame
TTITLE5=Wingless Angel
TTITLE6=Tell Me Tell Me Tell Me
TTITLE7=Ain't It Crazy
TTITLE8=Country Stock
TTITLE9=Hardest Heartbreak
EXTD=
EXTT0=
EXTT1=
EXTT2=
EXTT3=
EXTT4=
EXTT5=
EXTT6=
EXTT7=
EXTT8=
EXTT9=
PLAYORDER=
